HIERARCHY
ROOT Hips
{
	OFFSET	0.00	0.00	0.00
	CHANNELS 6 Xposition Yposition Zposition Zrotation Xrotation Yrotation
	JOINT LeftUpLeg
	{
		OFFSET	 0.126116	-0.014019	-0.065224
		CHANNELS 3 Zrotation Xrotation Yrotation
		JOINT LeftLeg
		{
			OFFSET	 0.000000	 0.000000	 0.569914
			CHANNELS 3 Zrotation Xrotation Yrotation
			JOINT LeftFoot
			{
				OFFSET	 0.000000	 0.000000	 0.544423
				CHANNELS 3 Zrotation Xrotation Yrotation
				JOINT LeftToeBase
				{
					OFFSET	 0.000000	 0.000000	 0.207117
					CHANNELS 3 Zrotation Xrotation Yrotation
					End Site
					{
						OFFSET	 0.000000	 0.000000	 0.207117
					}
				}
			}
		}
	}
	JOINT RightUpLeg
	{
		OFFSET	-0.124023	-0.008373	-0.065224
		CHANNELS 3 Zrotation Xrotation Yrotation
		JOINT RightLeg
		{
			OFFSET	 0.000000	 0.000000	 0.570047
			CHANNELS 3 Zrotation Xrotation Yrotation
			JOINT RightFoot
			{
				OFFSET	 0.000000	 0.000000	 0.544354
				CHANNELS 3 Zrotation Xrotation Yrotation
				JOINT RightToeBase
				{
					OFFSET	 0.000000	 0.000000	 0.207540
					CHANNELS 3 Zrotation Xrotation Yrotation
					End Site
					{
						OFFSET	 0.000000	 0.000000	 0.207540
					}
				}
			}
		}
	}
	JOINT Spine
	{
		OFFSET	 0.000184	-0.007763	 0.117403
		CHANNELS 3 Zrotation Xrotation Yrotation
		JOINT Spine1
		{
			OFFSET	 0.000000	 0.000000	 0.137269
			CHANNELS 3 Zrotation Xrotation Yrotation
			JOINT Spine2
			{
				OFFSET	 0.000000	 0.000000	 0.156879
				CHANNELS 3 Zrotation Xrotation Yrotation
				JOINT LeftShoulder
				{
					OFFSET	 0.080501	-0.002496	 0.160144
					CHANNELS 3 Zrotation Xrotation Yrotation
					JOINT LeftArm
					{
						OFFSET	 0.000000	 0.000000	 0.164363
						CHANNELS 3 Zrotation Xrotation Yrotation
						JOINT LeftForeArm
						{
							OFFSET	 0.000000	 0.000000	 0.364576
							CHANNELS 3 Zrotation Xrotation Yrotation
							JOINT LeftHand
							{
								OFFSET	 0.000000	 0.000000	 0.360812
								CHANNELS 3 Zrotation Xrotation Yrotation
								JOINT LeftHandIndex1
								{
									OFFSET	 0.000000	 0.000000	 0.086006
									CHANNELS 3 Zrotation Xrotation Yrotation
									JOINT LeftHandIndex2
									{
										OFFSET	 0.000000	 0.000000	 0.047237
										CHANNELS 3 Zrotation Xrotation Yrotation
										JOINT LeftHandIndex3
										{
											OFFSET	-0.004284	-0.000551	 0.038165
											CHANNELS 3 Zrotation Xrotation Yrotation
											End Site
											{
												OFFSET	-0.004284	-0.000551	 0.038165
											}
										}
									}
								}
							}
						}
					}
				}
				JOINT Neck
				{
					OFFSET	 0.000000	 0.000000	 0.176489
					CHANNELS 3 Zrotation Xrotation Yrotation
					JOINT Head
					{
						OFFSET	 0.000000	-0.001747	 0.077940
						CHANNELS 3 Zrotation Xrotation Yrotation
						End Site
						{
							OFFSET	 0.000000	-0.001747	 0.077940
						}
					}
				}
				JOINT RightShoulder
				{
					OFFSET	-0.080363	 0.000306	 0.159706
					CHANNELS 3 Zrotation Xrotation Yrotation
					JOINT RightArm
					{
						OFFSET	 0.000000	 0.000000	 0.164196
						CHANNELS 3 Zrotation Xrotation Yrotation
						JOINT RightForeArm
						{
							OFFSET	 0.000000	 0.000000	 0.365611
							CHANNELS 3 Zrotation Xrotation Yrotation
							JOINT RightHand
							{
								OFFSET	 0.000000	 0.000000	 0.360648
								CHANNELS 3 Zrotation Xrotation Yrotation
								JOINT RightHandIndex1
								{
									OFFSET	 0.000000	 0.000000	 0.069977
									CHANNELS 3 Zrotation Xrotation Yrotation
									JOINT RightHandIndex2
									{
										OFFSET	 0.000000	 0.000000	 0.052305
										CHANNELS 3 Zrotation Xrotation Yrotation
										JOINT RightHandIndex3
										{
											OFFSET	 0.009002	-0.000782	 0.042196
											CHANNELS 3 Zrotation Xrotation Yrotation
											End Site
											{
												OFFSET	 0.009002	-0.000782	 0.042196
											}
										}
									}
								}
							}
						}
					}
				}
			}
		}
	}
}
MOTION
Frames:    4
Frame Time: 0.03333334
-0.726004	-0.006429	 1.270810	-176.539500	-6.578323	 0.783089	-12.815130	 3.134272	-176.706300	-6.389382	-15.857130	-2.158271	 18.806610	 72.754200	-28.536220	-2.385833	 28.452760	 0.000004	 14.888980	 5.049817	 173.911100	 3.518572	-12.230350	 0.793149	-17.443930	 69.886140	 23.744760	 2.384659	 28.388700	-0.000001	-8.314273	 7.188662	-1.922547	-3.675926	 10.089150	 1.644439	 5.988141	-8.459366	 2.456087	-91.776250	 78.527380	-180.000000	-28.826990	 11.489330	 18.850240	-16.245220	-4.329747	-63.617600	-1.893826	-11.099550	-2.379626	-4.130354	 21.526190	 0.991307	-5.167926	 0.731697	 3.519349	-1.378229	 35.397820	-2.634230	-9.305198	 1.442008	 4.881733	-3.479516	-18.137880	-5.892813	 89.782040	 78.203870	-180.000000	 4.218531	 5.079576	-16.389570	 10.378870	-3.070496	 63.687850	 33.248860	 58.671220	 31.805090	 5.716295	 19.173350	-3.684826	 5.027458	 0.246833	-9.377971	-2.350882	 35.473990	 5.254307
-0.726092	-0.006502	 1.270251	-176.475000	-6.498633	 0.728671	-12.696660	 2.550425	-176.783800	-6.492434	-17.519890	-2.409154	 19.216730	 74.041020	-28.886180	-2.385833	 28.452760	 0.000004	 14.855500	 4.730355	 173.895300	 3.558453	-13.667360	 0.894115	-18.925950	 70.969920	 25.234540	 2.384659	 28.388700	-0.000001	-8.889599	 7.038793	-1.849162	-4.082089	 9.485333	 1.309105	 6.024168	-7.940464	 2.657193	-91.776210	 78.527380	-180.000000	-28.019510	 17.313050	 24.529010	-16.944030	-4.911464	-73.578790	-1.940681	-11.085230	-2.399584	-4.130354	 21.526190	 0.991307	-5.167926	 0.731697	 3.519349	-1.378229	 35.397820	-2.634230	-9.256265	 1.369268	 4.867879	-3.440254	-17.961260	-5.908533	 89.782100	 78.203830	 180.000000	 3.503937	 10.107150	-18.540860	 10.900380	-3.300159	 73.203260	 33.909230	 53.964260	 29.305110	 5.716295	 19.173350	-3.684826	 5.027458	 0.246833	-9.377971	-2.350882	 35.473990	 5.254307
-0.726205	-0.006595	 1.269398	-176.420500	-6.352907	 0.648750	-12.507000	 1.786273	-176.920200	-6.651703	-19.779640	-2.762621	 19.702070	 75.816440	-29.269330	-2.385833	 28.452760	 0.000004	 14.849080	 4.389579	 173.867800	 3.591207	-15.516260	 1.021056	-21.358190	 72.446500	 27.698680	 2.384659	 28.388700	-0.000001	-9.740067	 6.780225	-1.715748	-4.712189	 8.564853	 0.701210	 6.085743	-7.134039	 3.008175	-91.776180	 78.527380	-180.000000	-26.400940	 26.791640	 31.096990	-17.892710	-5.412384	-84.754840	-2.030586	-11.072330	-2.419656	-4.130354	 21.526190	 0.991307	-5.167926	 0.731697	 3.519349	-1.378229	 35.397820	-2.634230	-9.163551	 1.232647	 4.814087	-3.369117	-17.688600	-5.825933	 89.782030	 78.203920	-180.000000	 1.553093	 18.409970	-19.694220	 11.544680	-3.500971	 84.272900	 30.852810	 47.422700	 27.788830	 5.716295	 19.173350	-3.684826	 5.027458	 0.246833	-9.377971	-2.350882	 35.473990	 5.254307
-0.726437	-0.006820	 1.266906	-176.511600	-5.762080	 0.574029	-11.842790	 0.017404	-177.586800	-7.139508	-25.433890	-3.717578	 20.835040	 80.607150	-30.060480	-2.385833	 28.452760	 0.000004	 15.186610	 4.046317	 173.608400	 3.451721	-19.284750	 1.214261	-29.499280	 75.751300	 36.103620	 2.384659	 28.388700	-0.000001	-12.179750	 6.023445	-1.406912	-6.707916	 5.512030	-1.760094	 6.335373	-4.344604	 4.412915	-91.776210	 78.527400	-180.000000	-14.631260	 58.270690	 30.912360	-18.667330	-5.819958	-92.761860	-2.303941	-11.018720	-2.462505	-4.130354	 21.526190	 0.991307	-5.167926	 0.731697	 3.519349	-1.378229	 35.397820	-2.634230	-8.707370	 0.667495	 4.558591	-3.022793	-16.551110	-5.292548	 89.782050	 78.203870	-180.000000	-15.572170	 45.823670	-5.548903	 12.397970	-4.411606	 96.524950	 4.469817	 32.135930	 31.720520	 5.716295	 19.173350	-3.684826	 5.027458	 0.246833	-9.377971	-2.350882	 35.473990	 5.254307
